<svg width="13" height="9" viewBox="0 0 13 9" fill="none" xmlns="http://www.w3.org/2000/svg">
<path d="M5.87297 8.20463C5.92856 8.27165 6.00295 8.32644 6.08972 8.3643C6.1765 8.40216 6.27306 8.42193 6.37109 8.42193C6.46912 8.42193 6.56568 8.40216 6.65246 8.3643C6.73923 8.32644 6.81362 8.27165 6.86921 8.20463L12.3231 1.66589C12.3862 1.59047 12.4233 1.50213 12.4302 1.41047C12.437 1.31882 12.4135 1.22735 12.3622 1.146C12.3108 1.06466 12.2336 0.996543 12.1389 0.949067C12.0442 0.90159 11.9356 0.876565 11.825 0.87671H0.917193C0.806808 0.877088 0.698636 0.902435 0.604309 0.950026C0.509982 0.997616 0.43307 1.06565 0.381843 1.14681C0.330617 1.22797 0.307014 1.31918 0.313573 1.41064C0.320132 1.5021 0.356605 1.59034 0.41907 1.66589L5.87297 8.20463Z" fill="#4E5983"/>
</svg>
